<svg xmlns="http://www.w3.org/2000/svg" version="1.1" xmlns:xlink="http://www.w3.org/1999/xlink" xmlns:svgjs="http://svgjs.dev/svgjs" viewBox="0 0 800 800"><defs><linearGradient x1="50%" y1="0%" x2="50%" y2="100%" id="ssscribble-grad"><stop stop-color="hsl(61, 13%, 66%)" stop-opacity="1" offset="0%"></stop><stop stop-color="hsl(58, 65%, 61%)" stop-opacity="1" offset="100%"></stop></linearGradient></defs><g fill="none" stroke-width="1.5" stroke="url(#ssscribble-grad)" stroke-linecap="round"><path d="M951.87 196.98C1056.26 222.5 1200.01 246.82 1310.67 270.33 1336.7 294.42 1264.67 318.81 1130.39 344.65 993.41 372.64 913.17 404.05 918.6 440.36 1003.21 480.7 1124.32 527.68 1228.54 582.07 1275.92 640.45 1245 705.35 1148.81 775.05 1018.33 843.47 896.78 910.84 818.16 972.33 799.54 1021.69 838.83 1056.5 915.3 1072.06 1006.49 1067.89 1080.13 1042.69 1116.95 998.59 1110.28 945.36 1059.73 887.37 977.95 835.08 876.54 802.14 774.77 794.28 686.03 818.17 615.44 874.31 570.44 957.34 548.93 1056.39 548.78 1154.24 563.06 1235.29 584.3 1283.3 612.9 1289.13 638.54 1250.9 657.56 1176.29 675 1085.64 683.18 998.47 682.45 938.06 679.08 923.49 668.33 959.37 651.64 1039.61 634.04 1144.98 612.16 1248.6 586.64 1322.02 561.11 1344.95 532.54 1310.49 500.43 1229.62 467.4 1124.05 429.15 1020.89 384.38 945.04 336.98 913.31 281.5 930.27 217.76 987.9 152.43 1072.48 81.45 1159.99 8.61 1229.61 -56.86 1268.26 -114.27 1265.22 -156.03 1222.19 -176.44 1146.85 -172.12 1052.82 -140.88 955.94 -91.48 868.5 -27.7 803.18 37.18 765.49 82.43 757.09 97.93 774.27 71.14 809.54 0.87 858.41 -104.62 908.79 -225.95 952.84 -366.42 998.77 -307.79 985.79 -151.67 932.91 -78.25 883.65 -68.13 828.72 -134.22 771.78 -257.14 711.66 -394.88 653.72 -493.89 599.68 -513.72 546.1 -445.68 497.57 -318.55 454.25 -194.12 411.93 -129.6 374.3 -160.68 341.04 -276.39 308.15 -422.73 278.97 -527.12 253.44 -536.07 227.92 -445.25 206.65 -302.08 189.82 -175.16 173.36 -123.4 161.99 -165.71 156.18 -280.18 151.35 -409.17 152.6 -493.84 159.87 -499.35 167.59 -421.47 180.19 -292.82 196.08 -114.97 214.68 -144.9 218.56 -291.86 184.79 -367.93 142.5 -391.13 84.57 -356.34 12.09 -272.14 -68.47 -160.36 -153.9 -47.04 -236.23 79.83 -329.48 97.42 -349.77 24.32 -270.47 -33.74 -200.17 -80.86 -130.87 -110.45 -78.29 -123.46 -58.02 -115.39 -75.78 -90.03 -133.12 -50.31 -221.45 -0.95 -325.57 52.56 -424.56 111.46 -496.6 168.45 -525.77 220.8 -503.91 273.75 -437.92 320.32 -342.28 359.9 -241.75 399.29 -165.93 431.86 -134.03 457.38 -156.94 482.91 -230.35 500.78 -331.38 511.11 -431.7 521.26 -506.91 523.68 -535.29 518.87 -510.88 514.66 -440.63 504.96 -341.27 492.37 -236.22 485.16 -147.2 481.14 -92.34 485.65 -79.45 504.53 -108.74 539.59 -168.98 594.52 -244.06 666.01 -320.35 753.82 -378.65 851.24 -408.22 943.28 -405.53 1022.07 -369.25 1073.41 -306.17 1087.69 -223.74 1061.62 -133.89 998.76 -47.2 918.89 30.34 838.98 90.59 784.91 131.29 780.27 152.25 831.89 155.44 934.54 145.42 1061.39 123.27 1179.5 96.59 1251.25 70.08 1253.07 42.3 1184.29 20.53 1069.94 6.39 960 -3.75 898.74 -5.41 918.65 0.56 1017.73 10.56 1158.91 26.44 1283.24 46.59 1335.4 68.88 1291.15 93.48 1169.28 119.12 1031.16 145.32 942.92 171.45 951.87 196.98Q951.87 196.98 951.87 196.98" opacity="0.40"></path><path d="M909.01 246.3C1006.13 270.32 1141.12 297.59 1253.18 328.15 1296.02 359.06 1250.26 393.9 1137.14 433.01 1001.67 473.13 896.89 518.12 859.12 568 898.51 618.65 994.1 673.5 1105.99 731.25 1195.66 786.99 1228.1 842.3 1194.05 894.12 1103.69 937.88 984.13 972.63 868.45 994.72 782.49 1002.93 745.31 995.24 757.86 971.07 812.77 935.77 888.82 889.74 964.16 838.55 1025.17 793.07 1054.42 757.15 1048.21 738.97 1008.72 745.91 942.48 779.37 860.97 839.38 770.39 919.63 684 1012.02 608.75 1104.01 544.95 1180.69 497.87 1230.82 465.81 1244.68 446.66 1220.88 437.56 1162.57 434.11 1080.92 438.66 959.99 440.84 908.27 429.36 1013.87 419.74 1114.6 403.12 1210.77 379.09 1278.78 355.07 1301.95 324.21 1273.98 287.04 1203.15 250.05 1106.51 207.27 1006.23 159.94 924.12 114.36 876.49 66.76 871.24 20.16 905.95 -19.95 972.84 -53.53 1053.95 -76.01 1131.34 -85.58 1192.06 -79.11 1221.68 -54.75 1215.71 -18.95 1175.81 29.13 1107.97 82.69 1023.33 127.18 931.91 157.65 846.76 162.77 776.98 134.61 727.51 72.37 701.93 -20.12 698.55 -126.95 715.82 -232.99 746.75 -316.26 784.59 -357.18 827.48 -346.76 866.18 -285.8 896.57 -195.14 919.72 -98.86 930.34 -29.93 928.8 -17.31 917.48 -69.32 895.95 -176.61 866.79 -306.11 831.05 -417.34 791.36 -470.29 750.14 -446.07 706.08 -352.77 663.08 -226.56 622.6 -122.72 581.35 -84.03 543.71 -131.63 510.35 -248.44 476.89 -385.85 447.97 -482.98 423.94 -495.41 399.92 -417.65 381.36 -286.34 368.02 -157.64 354.58 -85.19 346.11 -94.88 342.05 -180.2 337.22 -301.33 335.71 -407.83 336.19 -460.6 333.82 -437.39 330.85 -348.36 324.95 -222.55 312.49 -101.63 293.42 -20.61 265.29 1.21 227.39 -36.35 178.48 -114.24 118.31 -209.32 50.89 -288.55 -23.56 -330.56 -100.82 -326.84 -173.04 -276.49 -236.96 -192.51 -285.72 -88.56 -313.84 14.44 -318.25 101.34 -297.15 164.91 -255.75 198.33 -197.35 204.47 -130.94 186.15 -71.32 153.08 -26.75 114.45 -8.27 71.53 -23.72 35.79 -72.91 10.89 -151.23 -6.56 -246.22 -11.03 -342.98 -4.31 -423.43 9.79 -471.71 31.52 -477.95 57.78 -439.6 87.58 -366.77 118.38 -273.56 148.06 -181.68 178.58 -115.58 206.28 -90.03 230.3 -113.18 254.33 -181.18 274.11 -274.91 290.39 -370.89 307.5 -448.58 322.81 -487.87 338.32 -480.93 357.37 -430.46 380.14 -346.99 409.63 -248.5 446.49 -153.29 493.62 -79.33 552.72 -37.92 619.25 -34.16 695.6 -64.71 777.97 -119.95 856.04 -190.52 927.4 -259.63 982.75 -314.87 1013.64 -349.87 1015.98 -356.58 986.79 -335.16 934.26 -288.6 864.24 -222.7 791.78 -145.74 739.29 -63.06 718.92 15.95 743.57 85.63 813.94 144.17 919.93 187.62 1040.02 216.44 1142.92 231.38 1203.78 234.92 1203.37 230.61 1143.78 218.24 1042.44 203.52 934.24 189.42 862.82 173.3 855.25 161.12 921.58 154.06 1041.63 147.77 1174.24 147.28 1268.83 152.47 1287.79 158.67 1222.41 169.94 1098.47 185.82 971.91 202.06 896.58 222.27 909.01 246.3Q909.01 246.3 909.01 246.3" opacity="0.74"></path><path d="M865.51 413.18C954.77 435.71 1080.42 462.85 1192.28 494.28 1249.72 525.66 1229.81 561.16 1142 600.24 1017.5 638.76 899.89 680.01 826.76 722.79 818.68 763.32 873.33 803.26 967.5 840.49 1110.83 885.08 1113.28 922.15 969.65 906.12 857.41 883.02 764.01 849.97 705.23 809.55 687.73 769.55 709.36 730.89 758.71 699.5 826.05 683.29 892.34 684.34 944.82 706.61 978.78 750.86 985.82 815.18 967.34 894.95 926.33 980.69 868.41 1064.24 801.18 1134.48 726.57 1181.16 653.71 1197.81 586.83 1180.74 523.66 1134.41 469.97 1064.76 425.4 984.11 386.37 910.43 354.56 856.1 327.88 833.85 304.34 851.16 283.1 905.67 262.45 988.56 242.63 1083.88 221.77 1172.56 199.25 1235.28 176.72 1258.48 153.07 1236.53 129.02 1175.47 105.8 1088.48 83.81 993.21 64.88 908.19 49.09 848.41 39.17 823.52 37.33 835.18 41.04 880.4 54.73 947.22 78.87 1021.69 106.71 1092.83 141.51 1145.49 179.14 1171.55 209.39 1168.62 231.41 1135.86 237.7 1078.88 221.47 1004.09 180.91 921.36 114.72 839.96 30.02 765.66 -67.19 706.06 -164.05 664.1 -267.79 637.76 -235.41 679 -112.46 723.31 -30.56 755.99 24.16 784.21 31.11 805.78 -17.8 823.22 -114.03 832.07 -234.93 832.71 -345.61 828.09 -414.93 816.53 -419.56 799.62 -359.14 779.1 -252.28 755.36 -136.48 729.93 -57.36 702.88 -44.07 675.77 -105.97 649.64 -222.28 623.11 -350.22 598.35 -439.48 575.83 -453.95 553.3 -387.86 533.55 -269.21 516.21 -142.92 498.47 -55.84 482.35 -36.66 466.93 -89.82 449.88 -191.56 431.9 -303.09 411.55 -388.14 387.6 -415.44 359.16 -377.86 324.76 -286.76 285.09 -169.17 238.18 -57.54 183.76 22.39 125.21 52.7 61.09 32.85 -6.29 -28.9 -71.22 -110.54 -132.94 -189.37 -186.73 -250.32 -227.43 -276.31 -252.6 -263.94 -258.67 -216.09 -246.24 -141.36 -214.75 -52.84 -167.05 41.05 -112.25 126.13 -54.59 195.08 -3.24 246.24 30.28 276.35 41.22 288.48 24.07 284.29 -22.07 269.88 -93.07 250.87 -180.71 226.05 -271.7 203.77 -353.19 186.85 -411.12 170.56 -435.51 161.73 -421.38 160.41 -370.3 160.76 -293.98 167.76 -205.34 180.59 -122.81 194.04 -66.2 212.2 -46.5 234.72 -69.69 257.24 -132.4 283.59 -218.79 314.01 -309.66 345.05 -388.1 381.28 -435.99 423.4 -444.63 467.19 -413.7 517.74 -348.62 574.9 -262.23 632.68 -168.87 694.95 -84.55 758.81 -21.7 816.86 11.87 869.33 13.58 910.51 -13 935.37 -63.15 941.18 -124.87 924.73 -187.15 890.51 -243.48 838.96 -282.72 777.28 -300.38 720.98 -296.06 677.17 -269 658.83 -223.27 675.97 -162.36 730.06 -92.77 817.6 -20.54 923.02 52.09 1029.74 118.67 1114.96 176.47 1158.28 225.89 1149.81 264.46 1089.96 293.12 998.43 312.88 899.2 325.22 824.6 332.52 803.5 334.32 845.45 334.39 943.2 334.72 1123.69 333.03 1191.13 344.49 1029.09 360.84 914.88 373.28 851.05 390.65 865.48 413.17Q865.51 413.18 865.51 413.18" opacity="0.78"></path><path d="M821.98 569.95C903.53 590.97 1019.47 614.28 1129.04 639.47 1197.64 664.33 1201.18 690.38 1140.45 716.74 1034.81 741.72 916.95 765.59 820.94 786.99 771.46 805.26 779.27 819.11 836.75 827.05 927.16 830.11 1021.2 825.76 1093.3 813.29 1127.8 796.14 1114.26 771.74 1057.59 741.4 968.81 711.02 866.79 679.52 770.22 650.62 667.65 625.83 661.69 664.27 730.9 737.88 788.16 805.45 839.05 882.39 876.94 962.1 901.6 1035.35 907.48 1095.74 896.22 1135.39 870.27 1149.48 832.23 1135.59 786.73 1094.7 734 1034.81 679.96 962.73 627.71 890.12 574.14 831.76 525.15 796.23 481.71 791.75 438.82 821.72 401.62 882.02 370.05 963.75 338.8 1053.02 312.65 1134.23 291.63 1191.77 270.61 1214.81 255.21 1198.34 245.51 1146.69 236.14 1069.81 233 981.35 236.24 896.61 245.06 808.19 287.97 823.5 312.63 909.53 321.7 979.38 324.21 1042.96 315.64 1091.05 292.39 1119.24 253 1121.92 195.94 1099.78 125.65 1055.67 43.48 994.57 -43.85 923.46 -124.16 847.13 -190.98 773.55 -233.65 707.91 -245.27 652.32 -223.26 610.53 -169.64 582.7 -97.89 568.48 -19.28 566.04 47.61 572.41 82.39 587.48 75.56 606.23 22.31 625.71 -68.53 647.64 -179.7 666.57 -285.52 681.08 -358.41 694.46 -379.91 702.25 -342.29 704.46 -258.14 704.78 -150.32 700.03 -52.79 690.85 -0.17 680.48 -9.9 666.66 -82.66 650.03 -196.39 633.05 -314.46 613.93 -396.01 592.91 -412.1 571.89 -357.05 549.46 -251.7 525.5 -131.11 501.18 -34.71 474.66 8.9 445.39 -11.66 414.92 -85.95 380.73 -187.61 342.27 -287.53 301.93 -353.11 256.81 -366.8 207 -326.05 156.06 -241.09 101.61 -134.03 45.16 -27.32 -8.83 55.01 -61.09 99.29 -108.56 100.58 -147.34 63.99 -176.19 2.7 -192.05 -71.78 -194.31 -139.83 -181.39 -188.77 -153.35 -213.53 -115.27 -207.87 -67.92 -174.85 -16.42 -118.5 29.87 -47.12 67.57 30.39 89.8 110.74 90.05 184.26 67.01 247.05 20.08 300.04 -46.74 339.71 -127.46 367.73 -212.71 391.02 -321 402.44 -371.92 404.41 -296.65 404.63 -220.03 408.88 -137.76 418.24 -65.02 427.31 -17.52 442.15 -3.17 463.17 -26.19 484.19 -83.72 510.9 -162.79 542.77 -247.91 574.36 -325.49 610.46 -379.61 649.88 -401.48 687.59 -388.9 726.48 -343.34 764.11 -273.13 796.5 -188.66 823.54 -102.89 841.83 -27.58 850.24 28.71 846.1 59.74 827.62 64.41 799.35 43.52 759.33 3.5 711.39 -47.85 666.27 -105.67 626.18 -159.21 599.9 -201.96 596.95 -231.86 620.16 -243.42 672.48 -236.56 748.97 -212.85 843.25 -174.03 942.57 -124.15 1028.68 -65.17 1088.67 -2.39 1109.27 60.39 1086.88 123.12 1024.91 181.03 936.95 232.7 848.64 279.69 780.82 319.57 755.47 352.94 784.57 381.43 863.84 404.92 975.62 424.8 1131.31 449.07 1121.54 491.71 960 514.94 858.81 530.7 805.89 548.93 821.98 569.95Q821.98 569.95 821.98 569.95" opacity="0.67"></path><path d="M778.48 596.43C852.54 615.95 958.48 633.92 1063.84 650.12 1140.05 666 1163.72 679.52 1129.91 690.1 1048.55 699.59 941.65 705.22 836.82 706.34 757.86 705.65 722.41 699.82 734.56 688.64 789.41 675.95 869.54 658.54 954.21 637.34 1027.15 617.19 1069.75 596.03 1074.74 576.19 1042.29 562.6 978.11 554.86 894.35 555.87 801.48 568.58 714.52 593.44 643.48 631.59 593.09 681.61 567.67 742.68 565.09 811.84 583.41 883.06 615.4 952.83 653.98 1014.9 697.76 1062.76 737.31 1092.35 768.78 1099.59 794.14 1084.49 807.94 1047.4 810.81 992.2 805.74 928.27 791.86 861.83 771.67 802.73 746.45 762.11 718.21 745.17 689.19 756.48 658.14 796.48 628.49 860.23 601.56 939.32 574.2 1022.01 550.47 1095.78 530.95 1148.27 511.43 1170.94 496.58 1159.44 485.92 1116.73 474.83 1050.15 467.01 969.97 461.25 888.38 453.47 816.32 445.54 763.47 435.35 735.48 420.12 735.03 399.34 759.64 370.58 803.72 333.88 862.21 287.09 924.46 229.68 981.96 166.16 1030.11 95.5 1060.93 21.63 1071.74 -47.02 1062.79 -108.06 1034.22 -154.32 989.67 -179.67 932.24 -181.05 867.45 -156.24 800.43 -110.78 733.37 -48.19 671.75 21.63 618.14 82.34 572.65 124.77 537.46 136.9 512.04 111.59 495.73 50.07 487.23 -40.27 484.51 -142.35 487.85 -238.38 493.82 -307.55 500.48 -334 509.8 -311.26 517.52 -243.32 522.51 -149.5 528.1 -51.92 529.98 21.89 527.73 48.17 525.39 18.76 518.8 -61.31 507.86 -170.53 496.85 -278.45 481.62 -352.51 462.11 -369.89 442.59 -325.19 419.24 -233.52 392.23 -121.42 365.15 -20.89 334.28 41.65 299.81 51.32 265.25 8.7 227.21 -71.26 186.2 -168.47 145.8 -254.61 103.41 -308.56 60.26 -319.58 19.77 -283.94 -19.18 -211.06 -54.57 -114.74 -83.9 -14.87 -106.53 71 -120.3 131.43 -124.97 158.06 -118.84 151.74 -101.28 115.88 -75.6 61.66 -40.79 0.88 0.68 -59.99 42.12 -107.93 82.54 -137.27 116.93 -147.54 138.43 -136.02 145.28 -106.04 133.91 -60.17 102.78 -3.89 53.05 57.28 -12.49 122.96 -87.41 186.16 -165.56 244.14 -238.36 299.44 -296.75 347.34 -334.08 388.02 -344.65 424.85 -327.69 455.74 -284.17 482.07 -219.66 506.13 -145.6 527.62 -71.16 547.7 -8.44 567.16 30.41 586.44 39.95 605.96 17.3 625.48 -35.17 644.78 -106.96 663.34 -185.79 681.27 -261.03 697.26 -319.04 710 -351.52 720.48 -355.3 725.75 -329.05 724.34 -277.42 719.07 -207.31 705.85 -128.17 684.37 -49.92 660.22 19.58 630.01 72.58 596.38 105.1 567.25 115.28 542.08 104.61 526.3 77.08 526.41 35.34 543.94 -12.68 582.13 -60.86 639.41 -106.97 714.15 -143.68 800.61 -168.12 886.98 -180.69 965.56 -178.75 1024.47 -163.53 1053.84 -136.63 1048.94 -99.84 1008.84 -56.17 943.28 -6.24 862.33 46.03 783.42 98.22 727.95 151.48 708.22 201.87 733.54 248.39 801.8 293.39 900.65 333.9 1008.87 370.01 1099.86 404.3 1151.81 434.83 1149.67 462.16 1094.65 488.39 999.87 512.34 891.63 534.48 803.82 556.3 761.1 576.91 778.48 596.43Q778.48 596.43 778.48 596.43" opacity="0.54"></path><path d="M735.01 472.33C801.8 490.35 897.59 504.47 997.06 514.76 1077.39 524.97 1117.22 531.2 1108.36 533.5 1053.99 535.65 966.72 533.88 866.6 528.49 739.61 519.36 706.83 492.54 795.76 480.79 873.71 478.07 944.76 479.3 996.45 486.39 1022.73 501.29 1017.78 524.4 984.06 556.82 926.03 597.81 852.32 647.67 772.53 705.25 692.35 766.68 621.57 830.78 564.95 893.72 523.66 950.15 499.86 997.37 491.45 1031.02 497.36 1048.21 513.05 1047.01 534.2 1026.63 561.38 990.45 587.88 940.2 611.02 880.97 633.88 821.74 650.71 767.36 661.06 725.28 669.18 703.09 671.07 703.31 667.47 727.78 662.26 775.01 652.81 839.96 639.95 915.09 626.6 990.78 610.76 1057.22 592.74 1104.78 574.72 1126.88 554.95 1119.78 533.2 1085.44 510.97 1029.14 485.84 958.29 457.06 882.32 426.69 809.96 391.42 749.77 350.61 707.76 307.57 687.67 258.73 690 204.65 712.38 150.29 752.44 93.33 802.97 36.57 857.33 -14.16 911.86 -58.57 958.43 -92.25 992.74 -111.61 1013.76 -114.63 1018.11 -99.12 1006.33 -68.28 979.96 -22.24 940.93 34.31 892.71 90.49 837.06 141.71 778.42 178.46 720.03 190.91 662.23 175.79 608.98 130.75 561.62 60.3 519.22 -28.2 483.73 -122.22 454.72 -234.56 421.99 -241.41 384.06 -130.45 372.68 -1.17 364.56 64.92 343.64 -41.53 327.7 -144.57 316.3 -242.19 301.71 -308.98 283.69 -327.31 265.67 -292.19 244.65 -214.22 220.96 -112.88 197.44 -13.13 171.6 62.17 144.06 97.36 117.3 86.63 89.7 35.78 62.23 -43.82 36.82 -131.31 13.02 -207.27 -7.79 -258.52 -24.75 -272.94 -36.9 -249.3 -42.91 -192.17 -43.48 -111.89 -36.72 -22.19 -22.09 65.84 -2.5 138.79 23.91 189.18 55.93 213.83 88.54 212.53 122.44 190 154.48 149.53 179.09 100.82 195.63 51.5 200.73 3.69 191.24 -33.74 166.84 -58.02 127.06 -70.45 73.99 -68.25 9.96 -53.46 -60.62 -27.94 -131.06 6 -196.27 45.05 -249.55 89.48 -285.14 134.77 -299.21 178.66 -289.29 223.94 -257.46 265.76 -205.89 303.2 -140.48 340.56 -71.46 373.2 -5.92 400.93 46.82 428.52 77.61 451.41 82.9 469.43 60.81 487.45 13.26 500.17 -51.34 507.68 -123.47 515.04 -195.04 516.98 -254.69 513.6 -294.98 510.14 -312.5 501.71 -304.13 489.12 -271.78 477.92 -219.54 464.63 -153.43 451.42 -80.99 443.6 -8.56 440.1 56.37 444.16 108.63 458.96 145.09 485.48 163.75 525.68 165.33 577.73 150.45 641.99 123.29 715.58 88.14 790.68 46.48 864.14 4.87 928.22 -32.93 974.36 -66.9 998.15 -92.02 994.78 -107.24 965.66 -113.88 912.78 -110.17 843.49 -97.31 772.56 -76.63 709.74 -49.14 668.68 -16.84 661.11 20.15 690.21 59.25 754.67 98.78 843.85 140.17 943.06 180.23 1032.84 218.02 1093.86 256.11 1113.19 291.25 1084.95 323.08 1016.61 354.77 922.15 383.12 824.38 408.01 749.97 432.82 716.68 454.31 735.01 472.33Q735.01 472.33 735.01 472.33" opacity="0.70"></path><path d="M691.5 292.73C925.44 335.89 895.82 372.23 663.01 386.14 631.32 408.88 714.37 446.6 842.27 507.27 947.14 588.29 965.65 690.98 899.12 804.29 773.02 904.4 635.54 976.38 523.54 997.33 445.6 963.18 410.29 878.43 401.99 769.68 415.51 685.52 430.14 656.4 433.48 705.2 438.9 820.51 426.28 959.37 393.24 1061.3 360.21 1080.01 308.33 1006.25 240.61 877.21 174.98 744.73 100.26 658.58 29.48 641.79 -19.45 693.72 -38.54 783.52 -11.52 873.55 49.57 942.5 139.62 963.21 222.43 935.95 245.66 869.17 187.98 777.99 48.72 681.33 -113.56 582.92 -226.24 498.58 -218.76 431.21 -98.81 373.64 59.66 329.08 136.99 292.38 61.82 259.28 -118.21 227.46 -265.48 194.42 -258.2 161.39 -103.59 128.71 71.86 99.52 143.08 73.91 70.29 58.38 -76.99 58.7 -201.45 68.83 -215.86 98.77 -120.33 146.27 37.72 192.01 182.15 235.77 263.91 259.25 270.73 243.22 220.5 183.34 151.41 80 77.84 -44.42 34.15 -163.84 24.19 -239.99 36.69 -247.42 71.02 -180.06 113.35 -60.34 161.98 55.95 205.74 123.01 238.78 104.3 271.82 2.37 292.56 -129.79 306.23 -232.34 326.19 -268.4 351.94 -220.47 396.69 -112.1 463.88 20.85 561.96 135.23 686.44 203.77 806.44 217.22 904.11 184.41 940.61 127.59 902.16 57.58 796.9 2.31 673.24 -27.79 612.09 -37.55 656.09 -20.86 804.75 13.63 976.26 60.79 1067.87 113.24 1009.43 163.1 846.74 215.44 698.81 259.69 691.47 292.72Q691.5 292.73 691.5 292.73" opacity="0.93"></path><path d="M648.01 195.41C778.11 225.44 941.01 253.64 1027.89 282.12 989.77 313.6 849.74 350.92 691.68 398.73 591.21 455.46 589.74 527.53 667.02 614.44 783.79 704.36 875.76 796.72 909.33 877.1 880.79 929.39 799.58 944.42 695.5 913.25 581.15 847.31 483.34 756.29 409.33 667.23 351.02 616.48 311.53 620.56 281.85 688.03 257.8 802.19 232.94 927.52 202.91 1017.78 172.87 1038.79 139.09 981.67 106.51 871.86 79.56 746.59 64.42 646.03 70.69 595.71 92.65 604.2 141.01 658.85 209.07 735.06 266.88 817.12 304.97 875.96 294.15 900.78 221.22 893.59 93.65 853.9 -54.38 793.63 -162.93 717.54 -188.39 638.76 -109.94 565.83 26.1 493.08 149.04 431.18 175.57 380.87 77.1 332.11 -91.88 292.78 -221.98 262.75 -222.67 232.72 -94.41 213.4 72.78 205.52 178.67 199.19 166.97 206.47 61.55 227.17 -76.78 248.05 -163.72 277.38 -161.15 307.19 -74.1 321.18 60.17 317.77 191.4 285.61 292.14 221.43 339.64 126.99 342.44 13.67 308.81 -93.81 263.8 -175.4 225.89 -205.91 188.44 -177.61 170.79 -94.16 172.29 19.51 177.62 117.74 196.62 168.79 226.64 147.8 256.67 57.55 296.31 -61.68 347.61 -164.27 402.74 -220.16 475.02 -207.16 564.5 -134.41 654.46 -23.34 748.92 94.6 828.85 191.82 872.34 254.26 867.98 274.85 806.6 261.93 714.74 220.91 616.06 171.67 560.26 128.03 588.94 87.41 702.8 64.79 863.14 60.09 990.59 64.32 1019.41 81.63 925.14 106.78 769.54 134.93 647.34 165.36 647.98 195.4Q648.01 195.41 648.01 195.41" opacity="0.07"></path><path d="M604.51 254.88C717.84 281.91 866.75 316.87 968.64 359.89 976.65 404.31 886.04 458.9 745.4 523.51 611.37 589.33 536.46 662.51 535.19 737.13 599.05 801.66 690.9 853.83 773.48 882.69 831.84 883.82 844.26 852.63 816.66 790.82 757.51 716.74 681.53 639.58 604.53 581.19 523.38 564.7 454.04 596.33 399.46 675.47 346.63 784.36 306.8 895.35 279.78 974.28 252.75 996.77 239.81 954.79 241.66 864.97 245.27 752.73 265.44 648.15 299.75 574.89 329.91 545 361.39 558.45 378.88 603.02 364.83 670.12 313.6 736.79 219.82 788.96 101.81 826.03 -22.07 836.97 -114.07 824.88 -140.94 795.22 -90.27 751.81 23.93 702.72 144.76 647.26 219.99 594.25 201.55 548.13 89.23 501.2 -65.15 463.31 -178.48 436.28 -185.76 409.25 -83.45 394.36 67.52 390.32 192.59 385.46 234.1 389.3 185.79 397.93 74.29 400.18 -39.92 399.09 -109.03 387.1 -114.75 357.54 -53.78 307.8 47.23 235.31 167.28 147.73 274.26 49.01 353.14 -46.23 404.58 -118.94 427.35 -156.64 433.19 -146.57 424.26 -93.14 415.15 -3.95 414.4 97.85 411.59 177.25 422.5 213.77 449.52 191.3 476.54 112.38 518.41 6.87 572.19 -91.59 623.9 -160.31 682.18 -176.58 737.95 -140.28 778.96 -62.08 800.71 39.31 790.94 141.53 753.72 231.49 685.55 294.73 600.92 329.02 535.32 335.59 506.38 322.22 540.23 299.35 637.47 266.38 775.92 237.71 907.24 218.73 975.38 200.96 949.28 195.53 834.65 202.08 694.1 210.03 597.25 227.85 604.48 254.87Q604.51 254.88 604.51 254.88" opacity="0.61"></path><path d="M561.01 425.6C658.13 449.63 790.26 483.41 897.84 525.46 941.95 566.99 903.24 615.37 802.62 667.27 673.84 714.75 560.54 759.85 491.23 796.12 475.85 818.79 508.39 823.88 567.68 806.59 642.56 772.18 705.71 718.22 745.7 651.77 766.61 590.73 761.58 541.06 738.49 517.27 702.62 531.13 660.84 582.67 620.99 666.5 578.49 766.6 543.67 862.77 519.64 930.78 495.62 953.95 483.53 925.36 480.72 855.36 475.27 760.34 473.34 661.1 467.58 576.96 449.03 519.43 414.49 495.3 356.56 501.54 279.54 535.27 181.9 582.89 75.53 632.65 -15.24 683.84 -76.26 722.42 -85.9 745.19 -41.6 757.8 50.15 755.04 161.31 740.75 244.33 719.58 269.36 692.7 215.98 664.32 99.13 634.14 -37.86 606.02 -134.98 582 -147.42 557.97 -69.77 539.17 59.08 524.05 187.93 507.12 267.39 490.3 276.4 469.84 217.73 442.5 122.58 405.69 28.59 356.07 -42.76 296.27 -65.94 223.2 -41.97 140.52 20.96 59.27 106.77 -16.83 196.73 -75.57 287.79 -106.84 363.9 -104.27 422.58 -64.35 471.31 2.16 506.83 87.73 534.45 173.48 558.48 234.21 581.22 257.95 605.24 234.8 629.26 166.8 653.44 75.5 674.72 -15.33 692.41 -89.89 700.6 -127.77 693.52 -124.03 676.48 -82.64 639.93 -11.42 585.91 74.62 532.97 166.09 481.64 248.54 450.18 314.43 457.69 363.21 509.34 392.62 605.7 406.98 724.7 407.73 841.4 402.2 917.7 396.35 926.32 386.08 860.55 381.4 740.98 385.18 621.39 388.44 548.59 401.57 560.98 425.59Q561.01 425.6 561.01 425.6" opacity="0.47"></path><path d="M517.48 576.68C599.04 597.7 712.45 622.75 817.22 650.2 884.86 676.29 891.73 702.11 841.05 724.34 747.87 741.27 638.4 749.87 538.79 746.55 463.11 734.11 423.96 707.38 418.6 666.8 443.32 622.01 484.14 571.15 527.9 521.96 575.77 487.5 612.18 470.43 634 478.38 650.24 515.1 652.96 577.93 645.14 659.99 634.84 748.5 618.29 829.73 597.27 887.27 576.25 910.31 551.75 893.18 522.4 841.94 490.58 766.55 449.62 680.08 396.94 596.71 338.7 525.27 267.67 474.62 187.4 447.05 111.24 442.65 40.24 456.52 -12.02 481.66 -34.21 517.72 -19.99 553.75 33.8 584.37 111.51 614.25 202.14 634.23 279.91 643.76 315.18 650.07 296.34 647.37 220.59 637.23 107.71 625.83 -9.95 609.21 -91.51 588.18 -107.6 567.16 -52.49 542.74 50.68 514.5 169.79 485 268.16 449.46 321.79 406.72 321.84 360.76 276.01 306.17 204.59 243.89 121.15 180.87 52.36 114.66 10.59 51.04 -4.56 -1.64 11.07 -40.44 48.78 -57.94 104.04 -52.26 166.2 -20.47 226.44 35.54 289.33 103.5 343.59 178.01 386.89 245.29 429.55 288.43 461.7 301.31 482.72 278.29 503.75 220.76 512.64 143.79 509.63 63.39 505.97 -10.56 489.95 -61.43 463.49 -82.75 439.69 -75.3 412.15 -39.38 389.29 16.96 383.98 88.04 398.52 163.82 441.22 236.16 510.55 304.3 604.26 361.21 709.59 406.05 802.9 441.77 867.58 467.79 882.94 487.28 844.72 501.49 758.31 513.91 647.31 527.46 552.24 539.66 501.39 555.66 517.48 576.68Q517.48 576.68 517.48 576.68" opacity="0.10"></path><path d="M473.98 592.32C540.76 610.34 634.38 624.98 729.19 635.61 826.79 647.24 762.47 632.85 639.09 602.01 548.83 576.33 470.71 543.54 411.95 506.57 363.44 459.74 370.31 426.73 393.89 464.4 413.12 514.41 425.64 579.96 428.83 654.78 432.25 729.72 425.4 796.21 407.38 843.77 389.36 865.87 361.03 858.1 323.63 823.76 286.46 768.57 241.16 699.81 190.7 626.81 144.07 555.23 98.07 492.96 59.39 444.18 34.62 409.72 27.15 390.4 42.84 383.69 77.98 389.07 134.74 401.25 206.24 415.93 302.78 444.06 327.48 479.72 217.79 480.37 116.03 478.08 18.76 468.12 -48.01 450.1 -66.3 432.09 -30.95 406.87 45.41 375.18 144.63 343.35 243.06 304.97 320.75 261.22 366.88 218.17 376.15 171.48 354.17 124.09 305.68 81.64 246.48 43.58 189.17 14.58 134.83 -2.32 96.71 -4.36 76.57 11.32 69.1 41.33 76.9 87.44 94.87 145.8 120.07 205.6 148.67 264.11 176.18 312.35 205.38 339.74 230.02 343.88 248.03 321.79 266.05 274.24 276.6 211.4 281.38 143.42 287.86 75.54 292.03 20.24 298.06 -16.56 311.31 -34.9 333.19 -31 368.43 -7.9 416.34 31.1 480.33 81.56 558.29 137.45 639.21 198.04 719.77 256.71 787.02 310.15 827.76 361.46 834.66 405.73 801.73 442.85 737.25 477.24 649.07 506.1 556.81 530.41 487.39 553.76 455.69 574.3 473.98 592.32Q473.98 592.32 473.98 592.32" opacity="0.72"></path><path d="M430.5 460.48C560.6 490.51 716.89 493.73 797.81 472.7 774.55 452.3 662.61 414.56 530.2 377.28 405.05 369.25 324.18 396.35 280.24 472.13 256.34 584.69 237.52 710.05 207.49 800.3 177.46 821.29 139.06 763.19 110.91 658.56 102.81 537.25 136.81 433.94 222.6 365.42 315.66 328.11 395.74 315.47 396.99 309.51 294.06 312.73 125.6 303.68 -4.49 273.65 -5.17 243.61 122.15 195.44 282.67 140.19 399.33 94.1 425.72 59.88 386.78 57.82 304.55 86.99 235.12 158.45 202.33 257.74 180.62 340.36 189.36 386.29 219.39 365.3 249.42 275.05 297.89 161.86 371.63 71.31 456.46 17.54 572.75 22.3 694.35 69.68 772.67 146.33 778.15 230.92 683.52 303.37 545.01 376.45 429.84 430.44 430.47 460.47Q430.5 460.48 430.5 460.48" opacity="0.59"></path><path d="M387.01 282.32C484.12 306.34 610.55 312.71 707.7 307.26 754.23 307.21 731.8 306.66 665.56 318.04 570.97 351.27 478.29 410.62 406.58 495.62 338.72 592.6 292.57 688.77 268.55 756.78 244.52 779.95 244.9 750.11 271.13 683.2 301.21 593.53 356.39 500.85 419.49 421.9 454.24 353.73 451.19 304.34 387.04 269.79 272.28 241.88 136.12 218.02 39.01 194 26.58 169.97 104 148.06 225.54 134.33 351.92 127.25 441.09 139.15 482.59 175.83 483.18 223.28 461.52 290.48 442.49 362.53 416.52 411.83 411.62 431.95 435.64 408.8 459.65 340.8 510.32 254.35 577.93 174.98 668.18 90.65 686.83 111.09 546.22 171.8 442.29 218.88 374.59 258.28 386.98 282.31Q387.01 282.32 387.01 282.32" opacity="0.22"></path><path d="M343.51 194.32C508.24 230.36 667.05 268.95 697.74 340.12 638.37 447.39 543.85 599.33 507.81 713.28 471.77 728.95 501.04 635.52 513.18 518.5 435.27 395.25 247.24 308.33 82.51 272.3 99.09 236.26 275.46 257.93 429.54 333.94 530.23 403.73 567.52 467.95 603.56 452.28 639.59 338.33 667.56 215.6 614.1 155.57 507.25 131.62 360.09 158.28 343.51 194.32Q343.51 194.32 343.51 194.32" opacity="0.08"></path><path d="M300.01 264C397.11 288.02 512.09 343.74 581.17 422.58 626.43 505.57 624.92 601.78 600.9 669.78 576.87 692.95 534.89 660.52 458.13 604.69 357.57 533.6 223.11 472.51 126.01 448.49 113.58 424.47 190.67 442.06 288.29 481.66 395.89 505.99 471.45 518.95 495.47 495.78 519.49 427.78 487.44 351.05 411.32 299.55 345.19 252.2 287.58 239.97 300.01 264Q300.01 264 300.01 264" opacity="0.67"></path></g></svg>